<svg width="220" height="240" viewBox="0 0 220 240" fill="none" xmlns="http://www.w3.org/2000/svg">
<rect x="0.5" y="0.5" width="219" height="239" rx="11.5" stroke="#CCCCCC"/>
<path d="M124.934 103.453H100.092C95.5303 103.453 91.1558 101.402 87.9304 97.7502C84.7051 94.0989 82.8931 89.1466 82.8931 83.9828C82.8931 78.819 84.7051 73.8667 87.9304 70.2154C91.1558 66.5641 95.5303 64.5128 100.092 64.5128H126.845C129.379 64.5128 131.809 63.3732 133.601 61.3446C135.393 59.3161 136.4 56.5648 136.4 53.6961C136.4 50.8273 135.393 48.076 133.601 46.0475C131.809 44.019 129.379 42.8794 126.845 42.8794H101.353C100.451 45.7674 98.6768 48.2016 96.3431 49.7517C94.0094 51.3018 91.2668 51.868 88.6 51.3502C85.9332 50.8324 83.514 49.264 81.7699 46.9221C80.0259 44.5803 79.0693 41.6158 79.0693 38.5527C79.0693 35.4896 80.0259 32.5252 81.7699 30.1833C83.514 27.8415 85.9332 26.273 88.6 25.7552C91.2668 25.2374 94.0094 25.8036 96.3431 27.3537C98.6768 28.9038 100.451 31.338 101.353 34.226H126.845C131.406 34.226 135.781 36.2774 139.006 39.9287C142.231 43.58 144.043 48.5323 144.043 53.6961C144.043 58.8599 142.231 63.8121 139.006 67.4635C135.781 71.1148 131.406 73.1661 126.845 73.1661H100.092C97.5576 73.1661 95.1273 74.3057 93.3354 76.3343C91.5435 78.3628 90.5369 81.114 90.5369 83.9828C90.5369 86.8516 91.5435 89.6028 93.3354 91.6314C95.1273 93.6599 97.5576 94.7995 100.092 94.7995H124.934V81.8195L144.043 99.1262L124.934 116.433V103.453Z" fill="#CCCCCC" fill-opacity="0.9"/>
<rect x="104.717" y="102.433" width="9.11917" height="39.6226" fill="#CCCCCC" fill-opacity="0.9"/>
<path d="M95.1365 141.83L120.066 141.425C124.644 141.35 129.06 143.337 132.343 146.949C135.626 150.56 137.508 155.5 137.574 160.682C137.639 165.864 135.884 170.863 132.694 174.58C129.504 178.297 125.14 180.427 120.563 180.502L93.7152 180.939C91.1722 180.98 88.7479 182.164 86.9756 184.229C85.2033 186.293 84.2282 189.071 84.2647 191.95C84.3013 194.829 85.3466 197.573 87.1706 199.579C88.9946 201.586 91.448 202.69 93.991 202.648L119.573 202.232C120.441 199.319 122.19 196.847 124.513 195.254C126.835 193.66 129.58 193.047 132.263 193.523C134.945 193.999 137.393 195.533 139.173 197.855C140.953 200.177 141.951 203.136 141.99 206.21C142.029 209.284 141.107 212.274 139.386 214.653C137.666 217.031 135.258 218.645 132.589 219.208C129.919 219.771 127.16 219.248 124.798 217.73C122.436 216.213 120.625 213.799 119.683 210.916L94.1013 211.332C89.5239 211.407 85.1078 209.42 81.8246 205.808C78.5413 202.197 76.6599 197.257 76.594 192.075C76.5282 186.893 78.2834 181.893 81.4736 178.176C84.6638 174.46 89.0275 172.33 93.6049 172.255L120.452 171.818C122.995 171.777 125.42 170.593 127.192 168.528C128.964 166.463 129.939 163.686 129.903 160.807C129.866 157.928 128.821 155.184 126.997 153.177C125.173 151.171 122.72 150.067 120.177 150.108L95.2468 150.514L95.4123 163.54L76.0149 146.485L94.971 128.805L95.1365 141.83Z" fill="#CCCCCC" fill-opacity="0.9"/>
<path d="M38.5006 160C38.5006 160.396 38.3833 160.782 38.1635 161.111C37.9437 161.44 37.6314 161.696 37.2659 161.848C36.9005 161.999 36.4983 162.039 36.1104 161.962C35.7224 161.884 35.366 161.694 35.0863 161.414C34.8066 161.135 34.6162 160.778 34.539 160.39C34.4618 160.002 34.5014 159.6 34.6528 159.235C34.8042 158.869 35.0605 158.557 35.3894 158.337C35.7183 158.117 36.105 158 36.5006 158C37.031 158 37.5397 158.211 37.9148 158.586C38.2898 158.961 38.5006 159.47 38.5006 160ZM54.5006 158C54.105 158 53.7183 158.117 53.3894 158.337C53.0605 158.557 52.8042 158.869 52.6528 159.235C52.5014 159.6 52.4618 160.002 52.539 160.39C52.6162 160.778 52.8066 161.135 53.0863 161.414C53.366 161.694 53.7224 161.884 54.1104 161.962C54.4983 162.039 54.9005 161.999 55.2659 161.848C55.6314 161.696 55.9437 161.44 56.1635 161.111C56.3833 160.782 56.5006 160.396 56.5006 160C56.5006 159.47 56.2898 158.961 55.9148 158.586C55.5397 158.211 55.031 158 54.5006 158ZM57.5006 154H34.5006V141.414C34.5014 141.151 34.45 140.891 34.3494 140.648C34.2487 140.405 34.1008 140.185 33.9143 140L31.2081 137.293C31.0204 137.105 30.7659 136.999 30.5006 136.999C30.2352 136.999 29.9807 137.105 29.7931 137.293C29.6054 137.48 29.5 137.735 29.5 138C29.5 138.265 29.6054 138.52 29.7931 138.708L32.5006 141.414V154H31.5006C31.2353 154 30.981 154.105 30.7934 154.293C30.6059 154.48 30.5006 154.735 30.5006 155C30.5006 155.265 30.6059 155.52 30.7934 155.707C30.981 155.895 31.2353 156 31.5006 156H57.5006C57.7658 156 58.0201 155.895 58.2077 155.707C58.3952 155.52 58.5006 155.265 58.5006 155C58.5006 154.735 58.3952 154.48 58.2077 154.293C58.0201 154.105 57.7658 154 57.5006 154ZM36.5006 150V141C36.5006 140.47 36.7113 139.961 37.0863 139.586C37.4614 139.211 37.9701 139 38.5006 139H42.5006V137C42.5006 136.47 42.7113 135.961 43.0863 135.586C43.4614 135.211 43.9701 135 44.5006 135H48.5006C49.031 135 49.5397 135.211 49.9148 135.586C50.2898 135.961 50.5006 136.47 50.5006 137V139H54.5006C55.031 139 55.5397 139.211 55.9148 139.586C56.2898 139.961 56.5006 140.47 56.5006 141V150C56.5006 150.53 56.2898 151.039 55.9148 151.414C55.5397 151.789 55.031 152 54.5006 152H38.5006C37.9701 152 37.4614 151.789 37.0863 151.414C36.7113 151.039 36.5006 150.53 36.5006 150ZM44.5006 139H48.5006V137H44.5006V139Z" fill="#CCCCCC" fill-opacity="0.9"/>
<path d="M168.333 89.6667H163.667C163.401 89.6667 163.147 89.772 162.959 89.9596C162.772 90.1471 162.667 90.4015 162.667 90.6667V105.333C162.667 105.465 162.692 105.595 162.743 105.716C162.793 105.837 162.867 105.948 162.959 106.04C163.052 106.133 163.162 106.207 163.284 106.257C163.405 106.307 163.535 106.333 163.667 106.333H168.333C168.464 106.333 168.595 106.307 168.716 106.257C168.837 106.207 168.947 106.133 169.04 106.04C169.133 105.948 169.207 105.837 169.257 105.716C169.307 105.595 169.333 105.465 169.333 105.333V90.6667C169.333 90.4015 169.228 90.1471 169.04 89.9596C168.853 89.772 168.598 89.6667 168.333 89.6667ZM188.333 89.6667H183.667C183.401 89.6667 183.147 89.772 182.959 89.9596C182.772 90.1471 182.667 90.4015 182.667 90.6667V105.333C182.667 105.465 182.692 105.595 182.743 105.716C182.793 105.837 182.867 105.948 182.959 106.04C183.052 106.133 183.162 106.207 183.284 106.257C183.405 106.307 183.535 106.333 183.667 106.333H188.333C188.464 106.333 188.595 106.307 188.716 106.257C188.837 106.207 188.947 106.133 189.04 106.04C189.133 105.948 189.207 105.837 189.257 105.716C189.307 105.595 189.333 105.465 189.333 105.333V90.6667C189.333 90.4015 189.228 90.1471 189.04 89.9596C188.853 89.772 188.598 89.6667 188.333 89.6667Z" fill="#CCCCCC" fill-opacity="0.9" stroke="#CCCCCC" stroke-opacity="0.9" stroke-width="1.5" stroke-linecap="round" stroke-linejoin="round"/>
<path d="M157.5 102V94.0001C157.5 93.7348 157.605 93.4805 157.792 93.293C157.98 93.1054 158.234 93.0001 158.5 93.0001H161.5C161.765 93.0001 162.019 93.1054 162.207 93.293C162.394 93.4805 162.5 93.7348 162.5 94.0001V102C162.5 102.265 162.394 102.52 162.207 102.707C162.019 102.895 161.765 103 161.5 103H158.5C158.234 103 157.98 102.895 157.792 102.707C157.605 102.52 157.5 102.265 157.5 102ZM194.166 102V94.0001C194.166 93.7348 194.061 93.4805 193.873 93.293C193.686 93.1054 193.431 93.0001 193.166 93.0001H190.166C189.901 93.0001 189.647 93.1054 189.459 93.293C189.272 93.4805 189.166 93.7348 189.166 94.0001V102C189.166 102.265 189.272 102.52 189.459 102.707C189.647 102.895 189.901 103 190.166 103H193.166C193.431 103 193.686 102.895 193.873 102.707C194.061 102.52 194.166 102.265 194.166 102ZM169.166 98.0001H182.5H169.166Z" fill="#CCCCCC" fill-opacity="0.9"/>
<path d="M169.166 98.0001H182.5M157.5 102V94.0001C157.5 93.7348 157.605 93.4805 157.792 93.293C157.98 93.1054 158.234 93.0001 158.5 93.0001H161.5C161.765 93.0001 162.019 93.1054 162.207 93.293C162.394 93.4805 162.5 93.7348 162.5 94.0001V102C162.5 102.265 162.394 102.52 162.207 102.707C162.019 102.895 161.765 103 161.5 103H158.5C158.234 103 157.98 102.895 157.792 102.707C157.605 102.52 157.5 102.265 157.5 102ZM194.166 102V94.0001C194.166 93.7348 194.061 93.4805 193.873 93.293C193.686 93.1054 193.431 93.0001 193.166 93.0001H190.166C189.901 93.0001 189.647 93.1054 189.459 93.293C189.272 93.4805 189.166 93.7348 189.166 94.0001V102C189.166 102.265 189.272 102.52 189.459 102.707C189.647 102.895 189.901 103 190.166 103H193.166C193.431 103 193.686 102.895 193.873 102.707C194.061 102.52 194.166 102.265 194.166 102Z" stroke="#CCCCCC" stroke-opacity="0.9" stroke-width="1.5" stroke-linecap="round" stroke-linejoin="round"/>
<path d="M35 49.5455C35 50.3309 35.6545 51 36.4545 51H55.3636C56.1782 51 56.8182 50.3309 56.8182 49.5455V48.0909H35V49.5455ZM45.9091 30.6364C40.4545 30.6364 35 33.5455 35 39.3636H56.8182C56.8182 33.5455 51.3636 30.6364 45.9091 30.6364ZM38.8109 36.4545C40.4255 34.2 43.8582 33.5455 45.9091 33.5455C47.96 33.5455 51.3927 34.2 53.0073 36.4545H38.8109ZM35 42.2727H56.8182V45.1818H35V42.2727ZM59.7273 24.8182V19H56.8182V24.8182H49.5455L49.88 27.7273H63.7855L61.7491 48.0909H59.7273V51H62.2291C63.4509 51 64.4545 50.0545 64.6 48.8618L67 24.8182H59.7273Z" fill="#CCCCCC" fill-opacity="0.9"/>
<path d="M180.333 224.333C182.174 224.333 183.667 222.841 183.667 221C183.667 219.159 182.174 217.667 180.333 217.667C178.492 217.667 177 219.159 177 221C177 222.841 178.492 224.333 180.333 224.333Z" fill="#CCCCCC" fill-opacity="0.9"/>
<path d="M163.667 224.333C165.508 224.333 167 222.841 167 221C167 219.159 165.508 217.667 163.667 217.667C161.826 217.667 160.333 219.159 160.333 221C160.333 222.841 161.826 224.333 163.667 224.333Z" fill="#CCCCCC" fill-opacity="0.9"/>
<path d="M160.333 220.953C158.505 220.863 157.367 220.592 156.553 219.78C155.74 218.968 155.47 217.828 155.38 216M167 221H177H167ZM183.667 220.953C185.495 220.863 186.633 220.592 187.447 219.78C188.667 218.558 188.667 216.595 188.667 212.667V209.333H180.833C179.592 209.333 178.972 209.333 178.47 209.17C177.97 209.007 177.515 208.729 177.143 208.357C176.771 207.985 176.493 207.53 176.33 207.03C176.167 206.528 176.167 205.908 176.167 204.667C176.167 202.805 176.167 201.875 175.922 201.122C175.678 200.371 175.26 199.689 174.702 199.131C174.144 198.573 173.462 198.156 172.712 197.912C171.958 197.667 171.028 197.667 169.167 197.667H155.333M155.333 204.333H165.333H155.333ZM155.333 209.333H162H155.333Z" fill="#CCCCCC" fill-opacity="0.9"/>
<path d="M160.333 220.953C158.505 220.863 157.367 220.592 156.553 219.78C155.74 218.968 155.47 217.828 155.38 216M167 221H177M183.667 220.953C185.495 220.863 186.633 220.592 187.447 219.78C188.667 218.558 188.667 216.595 188.667 212.667V209.333H180.833C179.592 209.333 178.972 209.333 178.47 209.17C177.97 209.007 177.515 208.729 177.143 208.357C176.771 207.985 176.493 207.53 176.33 207.03C176.167 206.528 176.167 205.908 176.167 204.667C176.167 202.805 176.167 201.875 175.922 201.122C175.678 200.371 175.26 199.689 174.702 199.131C174.144 198.573 173.462 198.156 172.712 197.912C171.958 197.667 171.028 197.667 169.167 197.667H155.333M155.333 204.333H165.333M155.333 209.333H162" stroke="#CCCCCC" stroke-opacity="0.9" stroke-linecap="round" stroke-linejoin="round"/>
<path d="M177.5 201H180.535C182.962 201 184.174 201 185.16 201.59C186.149 202.178 186.724 203.247 187.874 205.383L190 209.333" stroke="#CCCCCC" stroke-opacity="0.9" stroke-linecap="round" stroke-linejoin="round"/>
</svg>
