<svg width="220" height="240" viewBox="0 0 220 240" fill="none" xmlns="http://www.w3.org/2000/svg">
<rect width="220" height="240" rx="12" fill="#C41E3A"/>
<path d="M124.158 22.375C126.418 20.8648 129.045 19.9967 131.759 19.8633C134.474 19.7299 137.173 20.3362 139.57 21.6176C141.967 22.8989 143.97 24.8071 145.367 27.1383C146.764 29.4696 147.501 32.1365 147.5 34.8541C147.502 38.6716 146.049 42.3462 143.436 45.1293C140.823 47.9125 137.247 49.5947 133.438 49.8333H130.833M124.158 22.375C123.127 19.4431 121.211 16.9036 118.675 15.1071C116.139 13.3106 113.108 12.3458 110 12.3458C106.892 12.3458 103.861 13.3106 101.325 15.1071C98.7886 16.9036 96.8727 19.4431 95.8417 22.375M124.158 22.375C125.144 25.1809 125.273 28.2164 124.529 31.0958M95.8417 22.375C97.7521 23.6537 99.3431 25.3544 100.492 27.3458M95.8417 22.375C93.5822 20.8648 90.955 19.9967 88.2407 19.8633C85.5263 19.7299 82.8267 20.3362 80.43 21.6176C78.0334 22.8989 76.0298 24.8071 74.6331 27.1383C73.2364 29.4696 72.4991 32.1365 72.5 34.8541C72.4978 38.6716 73.9512 42.3462 76.5641 45.1293C79.1769 47.9125 82.7525 49.5947 86.5625 49.8333H89.1667" stroke="#F8F8F8" stroke-width="1.5" stroke-linecap="round" stroke-linejoin="round"/>
<path d="M130.833 62.3333V45.6666M89.1667 62.3333V45.6666M135 64.4166C128.337 61.825 119.583 60.25 110 60.25C100.417 60.25 91.6667 61.825 85 64.4166M130.833 74.8333C130.833 80.3586 128.638 85.6577 124.731 89.5647C120.824 93.4717 115.525 95.6666 110 95.6666C104.475 95.6666 99.1756 93.4717 95.2686 89.5647C91.3616 85.6577 89.1667 80.3586 89.1667 74.8333" stroke="#F8F8F8" stroke-width="1.5" stroke-linecap="round"/>
<path d="M110 79.875C111.036 79.875 111.875 79.0355 111.875 78C111.875 76.9645 111.036 76.125 110 76.125C108.964 76.125 108.125 76.9645 108.125 78C108.125 79.0355 108.964 79.875 110 79.875Z" fill="#C41E3A"/>
<path d="M118.375 79.7188L118.356 79.7039L117.123 78.7371C117.045 78.6753 116.983 78.5959 116.942 78.5054C116.9 78.4149 116.881 78.3159 116.885 78.2164V77.7648C116.881 77.666 116.901 77.5677 116.942 77.4779C116.984 77.3881 117.046 77.3095 117.124 77.2484L118.356 76.2812L118.375 76.2664C118.565 76.1081 118.692 75.8873 118.734 75.6435C118.777 75.3998 118.731 75.149 118.605 74.9359L116.937 72.0492C116.935 72.0465 116.933 72.0436 116.932 72.0406C116.805 71.8305 116.609 71.6713 116.378 71.5907C116.146 71.5101 115.894 71.5131 115.664 71.5992L115.65 71.6043L114.201 72.1875C114.11 72.2245 114.011 72.2392 113.912 72.2304C113.814 72.2217 113.719 72.1897 113.636 72.1371C113.508 72.0564 113.378 71.9801 113.245 71.9082C113.16 71.8617 113.086 71.7957 113.03 71.7155C112.975 71.6353 112.939 71.5431 112.925 71.4465L112.707 69.9L112.702 69.8719C112.655 69.6323 112.526 69.4165 112.338 69.2605C112.15 69.1046 111.915 69.0181 111.67 69.0156H108.33C108.082 69.0164 107.843 69.1046 107.654 69.2646C107.465 69.4246 107.338 69.6461 107.297 69.8902L107.293 69.9121L107.075 71.4617C107.062 71.5581 107.026 71.65 106.971 71.7302C106.916 71.8103 106.843 71.8765 106.758 71.9234C106.625 71.9949 106.495 72.0707 106.367 72.1508C106.284 72.203 106.189 72.2348 106.091 72.2434C105.993 72.252 105.895 72.2373 105.804 72.2004L104.353 71.6145L104.339 71.609C104.11 71.5228 103.857 71.5199 103.625 71.6008C103.393 71.6817 103.197 71.8414 103.071 72.052L103.066 72.0605L101.395 74.9492C101.269 75.1625 101.223 75.4136 101.265 75.6576C101.308 75.9016 101.435 76.1227 101.625 76.2812L101.644 76.2961L102.877 77.2629C102.955 77.3247 103.017 77.4041 103.058 77.4946C103.1 77.5851 103.119 77.6841 103.115 77.7836V78.2352C103.119 78.334 103.099 78.4323 103.058 78.5221C103.016 78.6119 102.954 78.6905 102.876 78.7516L101.644 79.7188L101.625 79.7336C101.435 79.8919 101.308 80.1127 101.266 80.3565C101.223 80.6002 101.269 80.851 101.395 81.0641L103.063 83.9508C103.065 83.9535 103.067 83.9564 103.068 83.9594C103.195 84.1695 103.391 84.3287 103.622 84.4093C103.854 84.4899 104.106 84.4869 104.336 84.4008L104.35 84.3957L105.798 83.8125C105.889 83.7755 105.988 83.7608 106.086 83.7696C106.185 83.7783 106.279 83.8103 106.363 83.8629C106.491 83.9439 106.621 84.0202 106.754 84.0918C106.839 84.1383 106.913 84.2043 106.969 84.2845C107.024 84.3647 107.06 84.4569 107.073 84.5535L107.291 86.1L107.295 86.1281C107.343 86.368 107.472 86.5842 107.66 86.7402C107.849 86.8962 108.085 86.9824 108.33 86.9844H111.67C111.918 86.9836 112.157 86.8954 112.346 86.7354C112.535 86.5754 112.662 86.3539 112.704 86.1098L112.707 86.0879L112.925 84.5383C112.938 84.4417 112.974 84.3497 113.03 84.2695C113.085 84.1893 113.159 84.1233 113.244 84.0766C113.378 84.0047 113.508 83.9285 113.635 83.8492C113.718 83.797 113.813 83.7652 113.911 83.7566C114.009 83.748 114.107 83.7627 114.198 83.7996L115.649 84.3836L115.663 84.3891C115.892 84.4754 116.145 84.4784 116.377 84.3975C116.609 84.3165 116.805 84.1568 116.931 83.9461C116.933 83.9432 116.935 83.9403 116.936 83.9375L118.605 81.0512C118.731 80.8379 118.777 80.5868 118.735 80.3426C118.693 80.0985 118.565 79.8773 118.375 79.7188ZM113.122 78.1469C113.093 78.7518 112.889 79.3354 112.535 79.8268C112.181 80.3181 111.692 80.696 111.128 80.9145C110.563 81.1331 109.947 81.1828 109.354 81.0576C108.762 80.9325 108.218 80.6379 107.79 80.2097C107.362 79.7814 107.067 79.238 106.942 78.6455C106.817 78.0529 106.867 77.4368 107.086 76.8721C107.304 76.3073 107.682 75.8183 108.174 75.4643C108.665 75.1104 109.249 74.9069 109.854 74.8785C110.288 74.8594 110.721 74.9309 111.126 75.0883C111.532 75.2458 111.9 75.4859 112.207 75.7933C112.514 76.1007 112.754 76.4687 112.912 76.8739C113.069 77.2791 113.141 77.7126 113.122 78.1469Z" fill="#F8F8F8"/>
<path d="M41.5 129.5V112" stroke="#F8F8F8" stroke-width="2" stroke-linecap="round" stroke-linejoin="round"/>
<path d="M48.5 118L41.5 111L34.5 118" stroke="#F8F8F8" stroke-width="2" stroke-linecap="round" stroke-linejoin="round"/>
<rect x="85.5" y="116" width="49" height="11" fill="#F8F8F8"/>
<rect x="94.5" y="105.5" width="29" height="29" rx="14.5" fill="#F8F8F8"/>
<rect x="94.5" y="105.5" width="29" height="29" rx="14.5" stroke="#C41E3A" stroke-width="3"/>
<path d="M114.5 114.875V113H104.5V114.875H107.682C108.865 114.875 109.865 115.661 110.241 116.75H104.5V118.625H110.241C110.055 119.172 109.709 119.646 109.25 119.982C108.792 120.318 108.244 120.499 107.682 120.5H104.5V122.763L109.578 128H112.149L106.695 122.375H107.682C108.729 122.373 109.743 121.999 110.554 121.316C111.365 120.633 111.923 119.683 112.135 118.625H114.5V116.75H112.135C111.996 116.067 111.709 115.426 111.295 114.875H114.5Z" fill="#C41E3A"/>
<path d="M179 128.5V111" stroke="#F8F8F8" stroke-width="2" stroke-linecap="round" stroke-linejoin="round"/>
<path d="M185.5 118L178.5 111L171.5 118" stroke="#F8F8F8" stroke-width="2" stroke-linecap="round" stroke-linejoin="round"/>
<path d="M83.0422 179.673C90.688 179.594 94.9526 180.365 103.067 183.679L104.642 179.821C96.0442 176.31 91.2297 175.421 83.0005 175.506L83.0422 179.673ZM103.067 192.012C94.9526 188.7 90.688 187.927 83.0422 188.006L83.0005 183.84C91.2297 183.754 96.0422 184.644 104.642 188.154L103.067 192.012ZM83.0422 196.34C90.688 196.26 94.9526 197.031 103.067 200.346L104.642 196.487C96.0442 192.977 91.2297 192.087 83.0005 192.173L83.0422 196.34ZM137.167 196.34C129.521 196.26 125.257 197.031 117.142 200.346L115.567 196.487C124.165 192.977 128.98 192.087 137.209 192.173L137.167 196.34ZM117.142 192.012C125.257 188.7 129.523 187.927 137.167 188.006L137.209 183.84C128.98 183.754 124.167 184.644 115.567 188.154L117.142 192.012ZM137.167 179.673C129.521 179.594 125.257 180.365 117.142 183.679L115.567 179.821C124.165 176.31 128.98 175.421 137.209 175.506L137.167 179.673ZM88.2297 169.25V163H84.063V169.25H88.2297ZM95.5213 165.083V171.333H91.3547V165.083H95.5213ZM102.813 173.417V167.167H98.6463V173.417H102.813ZM131.98 169.25V163H136.146V169.25H131.98ZM124.688 165.083V171.333H128.855V165.083H124.688ZM117.396 173.417V167.167H121.563V173.417H117.396Z" fill="#F8F8F8"/>
<path d="M110.214 158.347C120.45 153.423 129.553 149.752 141.997 152.752L142.594 152.9L142.598 152.901C143.695 153.187 144.666 153.829 145.358 154.727C146.001 155.563 146.368 156.577 146.412 157.628C147.293 157.812 148.194 158.009 149.114 158.222L150.325 158.509L150.573 158.581C151.14 158.77 151.643 159.122 152.014 159.595C152.438 160.136 152.668 160.804 152.667 161.492V214.698C152.666 216.658 150.868 218.097 148.972 217.737L148.971 217.736C136.308 215.321 127.76 215.125 116.204 216.838C115.606 217.826 114.78 218.661 113.791 219.267C112.65 219.967 111.338 220.338 110 220.338C108.663 220.338 107.35 219.967 106.209 219.267C105.22 218.66 104.393 217.827 103.795 216.838C92.2429 215.125 83.6915 215.321 71.0327 217.735L71.0337 217.736C70.5852 217.824 70.1224 217.811 69.6792 217.699C69.2361 217.587 68.8226 217.379 68.4692 217.09C68.1159 216.8 67.8306 216.436 67.6343 216.023C67.4379 215.61 67.3354 215.159 67.3335 214.702V161.492C67.3321 160.804 67.5625 160.136 67.9868 159.595C68.4117 159.054 69.0064 158.671 69.6753 158.509C70.9749 158.195 72.2795 157.901 73.5884 157.628C73.6863 155.449 75.1657 153.474 77.4067 152.9C90.1574 149.635 99.3871 153.346 109.786 158.348L110 158.393L110.214 158.347ZM73.5005 163.954V211.031C79.5461 210.02 84.8013 209.535 90.0435 209.545C86.8318 209.199 83.4988 209.315 79.8081 209.992C76.7197 210.559 73.5837 208.265 73.5835 204.865V163.935C73.5558 163.941 73.5282 163.948 73.5005 163.954ZM146.417 204.865C146.416 208.266 143.283 210.555 140.194 209.992H140.193C136.502 209.315 133.169 209.199 129.958 209.545C135.199 209.535 140.455 210.02 146.5 211.031V163.954C146.472 163.948 146.444 163.941 146.417 163.935V204.865ZM106.917 163.813C97.1038 159.103 89.77 156.348 79.7505 158.677V203.744C89.4714 202.183 97.1667 204.052 105.332 207.538C105.814 207.132 106.346 206.79 106.917 206.522V163.813ZM140.25 158.677C130.23 156.348 122.896 159.101 113.083 163.811V206.522C113.654 206.79 114.186 207.132 114.668 207.538C122.833 204.054 130.527 202.183 140.25 203.744V158.677Z" stroke="#F8F8F8" stroke-width="2"/>
</svg>
