<svg width="220" height="240" viewBox="0 0 220 240" fill="none" xmlns="http://www.w3.org/2000/svg">
<rect width="220" height="240" rx="12" fill="#C41E3A"/>
<g clip-path="url(#clip0_291_8879)">
<path d="M56.4096 125.716L54.9998 123C58.2223 121.324 62.7213 117.888 64.8298 114.889L76.5259 97.9546L104.822 152.347L84.2423 152.204C80.5501 152.181 75.2278 153.824 71.9998 155.5L69.3896 150.666L56.4096 125.716ZM70.0482 182.055L76.6839 178.603C78.4111 177.704 79.0245 175.483 78.0582 173.626L69.0004 156L55.4999 163L65.1837 180.323C66.15 182.181 68.3209 182.954 70.0482 182.055Z" fill="#F8F8F8"/>
<path d="M79.421 85.5634C77.2608 86.6873 75.6555 88.6617 74.9584 91.0525C74.2612 93.4433 74.5292 96.0545 75.7035 98.3117L104.043 152.787C105.218 155.044 107.202 156.763 109.56 157.564C111.918 158.366 114.456 158.185 116.616 157.061C118.776 155.937 120.382 153.963 121.079 151.572C121.776 149.181 121.508 146.57 120.334 144.313L91.9938 89.837C90.8154 87.5839 88.831 85.8694 86.4748 85.0685C84.1186 84.2676 81.5824 84.4455 79.421 85.5634Z" fill="#F8F8F8"/>
<path d="M32.7545 134.499L55.6897 122.568L72.6792 155.225L49.744 167.157C47.0909 168.537 43.8746 167.568 42.5477 165.018L30.3897 141.647C29.0485 139.069 30.1015 135.879 32.7545 134.499Z" fill="#F8F8F8"/>
<path d="M111.124 127.828L106.257 118.524L100 106.562C105.873 103.49 113.124 105.761 116.195 111.633C119.267 117.506 116.996 124.757 111.124 127.828Z" fill="#F8F8F8"/>
</g>
<path fill-rule="evenodd" clip-rule="evenodd" d="M82.1847 74.8826C82.4749 74.7125 82.7052 74.4639 82.8462 74.1685C82.9873 73.8731 83.0327 73.5444 82.9766 73.2243L80.7139 60.3624C80.6763 60.1487 80.5944 59.9443 80.473 59.7611C80.3515 59.5779 80.193 59.4195 80.0067 59.2953C79.8203 59.171 79.6098 59.0833 79.3875 59.0373C79.1652 58.9912 78.9355 58.9878 78.7118 59.0272L65.8897 61.296C65.5613 61.3543 65.258 61.5027 65.017 61.723C64.776 61.9432 64.6078 62.2257 64.5331 62.5357C64.4585 62.8458 64.4806 63.1698 64.5967 63.468C64.7129 63.7663 64.918 64.0257 65.1869 64.2144L70.8505 68.1905L61.0934 81.4605L52.1865 75.5127C51.7213 75.2026 51.1459 75.0811 50.5866 75.1747C50.0274 75.2684 49.53 75.5696 49.2038 76.0121L35.3875 94.7893C35.2261 95.0088 35.1117 95.2564 35.0508 95.518C34.9899 95.7796 34.9837 96.0501 35.0326 96.3139C35.0814 96.5778 35.1844 96.8299 35.3356 97.0559C35.4868 97.2819 35.6833 97.4773 35.9138 97.631C36.3793 97.9414 36.9553 98.063 37.515 97.969C37.7921 97.9225 38.0569 97.8244 38.2942 97.6804C38.5315 97.5365 38.7368 97.3494 38.8982 97.1299L51.4803 80.0242L60.3871 85.972C60.8528 86.2817 61.4285 86.4028 61.9878 86.3085C62.5471 86.2142 63.0442 85.9124 63.3698 85.4693L74.296 70.616L80.2648 74.8076C80.54 75.0006 80.8695 75.1108 81.211 75.1242C81.5525 75.1376 81.8904 75.0535 82.1813 74.8826" fill="#F8F8F8"/>
<path fill-rule="evenodd" clip-rule="evenodd" d="M140.25 31.67V30C140.25 28.3424 140.908 26.7527 142.081 25.5806C143.253 24.4085 144.842 23.75 146.5 23.75C148.158 23.75 149.747 24.4085 150.919 25.5806C152.091 26.7527 152.75 28.3424 152.75 30V31.67C157.223 31.69 159.6 31.87 160.933 33.4967C162.433 35.3267 161.882 38.0933 160.775 43.6283L159.775 48.6283C159.005 52.4767 158.62 54.4 157.237 55.5333C155.855 56.6667 153.893 56.6667 149.97 56.6667H143.03C139.105 56.6667 137.143 56.6667 135.76 55.5333C134.378 54.4 133.993 52.4767 133.223 48.6283L132.223 43.6283C131.117 38.095 130.563 35.3283 132.063 33.4967C133.397 31.87 135.775 31.69 140.248 31.67M142.75 30C142.75 29.0054 143.145 28.0516 143.848 27.3484C144.552 26.6451 145.505 26.25 146.5 26.25C147.495 26.25 148.448 26.6451 149.152 27.3484C149.855 28.0516 150.25 29.0054 150.25 30V31.6667H142.75V30ZM151.5 38.3333C151.942 38.3333 152.366 38.1577 152.678 37.8452C152.991 37.5326 153.167 37.1087 153.167 36.6667C153.167 36.2246 152.991 35.8007 152.678 35.4882C152.366 35.1756 151.942 35 151.5 35C151.058 35 150.634 35.1756 150.321 35.4882C150.009 35.8007 149.833 36.2246 149.833 36.6667C149.833 37.1087 150.009 37.5326 150.321 37.8452C150.634 38.1577 151.058 38.3333 151.5 38.3333ZM143.167 36.6667C143.167 37.1087 142.991 37.5326 142.678 37.8452C142.366 38.1577 141.942 38.3333 141.5 38.3333C141.058 38.3333 140.634 38.1577 140.321 37.8452C140.009 37.5326 139.833 37.1087 139.833 36.6667C139.833 36.2246 140.009 35.8007 140.321 35.4882C140.634 35.1756 141.058 35 141.5 35C141.942 35 142.366 35.1756 142.678 35.4882C142.991 35.8007 143.167 36.2246 143.167 36.6667Z" fill="#F8F8F8"/>
<path d="M187.604 86.6421H168.843C166.623 86.6421 164.822 88.4358 164.822 90.6467V125.353C164.822 127.564 166.623 129.358 168.843 129.358H187.604C189.824 129.358 191.624 127.564 191.624 125.353V90.6467C191.624 88.4358 189.824 86.6421 187.604 86.6421ZM178.223 126.688C176.741 126.688 175.543 125.495 175.543 124.018C175.543 122.542 176.741 121.349 178.223 121.349C179.706 121.349 180.903 122.542 180.903 124.018C180.903 125.495 179.706 126.688 178.223 126.688ZM187.604 117.678C187.604 118.228 187.152 118.679 186.599 118.679H169.848C169.295 118.679 168.843 118.228 168.843 117.678V91.6478C168.843 91.0972 169.295 90.6467 169.848 90.6467H186.599C187.152 90.6467 187.604 91.0972 187.604 91.6478V117.678Z" fill="#F8F8F8"/>
<path d="M162.167 164H138.833C137 164 135.5 165.5 135.5 167.333V190.667C135.5 192.5 137 194 138.833 194H162.167C164 194 165.5 192.5 165.5 190.667V167.333C165.5 165.5 164 164 162.167 164ZM145.5 187.333H142.167V175.667H145.5V187.333ZM152.167 187.333H148.833V170.667H152.167V187.333ZM158.833 187.333H155.5V180.667H158.833V187.333Z" fill="#F8F8F8"/>
<rect width="12.5333" height="1.87287" rx="0.936434" transform="matrix(0.530279 -0.847823 0.959109 0.283038 110.255 93.9703)" fill="#F8F8F8"/>
<rect x="117.12" y="107.236" width="13.7161" height="1.64847" rx="0.824235" transform="rotate(-27.3614 117.12 107.236)" fill="#F8F8F8"/>
<rect width="12.514" height="1.87616" rx="0.93808" transform="matrix(0.99806 0.0622666 -0.328796 0.944401 125.058 120.4)" fill="#F8F8F8"/>
<defs>
<clipPath id="clip0_291_8879">
<rect width="100" height="100" fill="white" transform="translate(8 112.151) rotate(-27.4848)"/>
</clipPath>
</defs>
</svg>
