<svg width="24" height="24" viewBox="0 0 24 24" fill="none" xmlns="http://www.w3.org/2000/svg">
<path d="M4.82792 17.618L2.61192 18.862C2.52114 18.9149 2.41603 18.9378 2.31147 18.9277C2.2069 18.9176 2.10817 18.8748 2.02923 18.8055C1.95029 18.7362 1.89514 18.6438 1.87158 18.5414C1.84802 18.439 1.85723 18.3318 1.89792 18.235L2.81892 16.127L1.15892 14.492C1.08716 14.428 1.03686 14.3434 1.01486 14.2498C0.992855 14.1562 1.00022 14.0581 1.03595 13.9688C1.07168 13.8796 1.13404 13.8035 1.21455 13.7509C1.29507 13.6983 1.38982 13.6718 1.48592 13.675H3.39992L4.38492 11.556C4.42614 11.4737 4.48946 11.4044 4.56779 11.3561C4.64612 11.3077 4.73636 11.2821 4.82842 11.2821C4.92048 11.2821 5.01073 11.3077 5.08906 11.3561C5.16738 11.4044 5.2307 11.4737 5.27192 11.556L6.25692 13.675H8.16992C8.26587 13.6722 8.36037 13.6988 8.44067 13.7514C8.52097 13.804 8.5832 13.88 8.61897 13.9691C8.65473 14.0581 8.6623 14.156 8.64065 14.2495C8.61901 14.3431 8.56919 14.4277 8.49792 14.492L6.83692 16.127L7.75692 18.238C7.79761 18.3348 7.80683 18.442 7.78327 18.5444C7.7597 18.6468 7.70455 18.7392 7.62561 18.8085C7.54667 18.8778 7.44794 18.9206 7.34338 18.9307C7.23881 18.9408 7.13371 18.9179 7.04292 18.865L4.82792 17.618ZM19.1589 17.618L16.9429 18.862C16.8522 18.9145 16.7472 18.9372 16.6429 18.9268C16.5385 18.9165 16.44 18.8737 16.3613 18.8045C16.2826 18.7353 16.2275 18.6431 16.204 18.5409C16.1804 18.4387 16.1895 18.3317 16.2299 18.235L17.1489 16.124L15.4889 14.489C15.4165 14.4252 15.3656 14.3405 15.3433 14.2466C15.321 14.1527 15.3283 14.0542 15.3643 13.9646C15.4002 13.875 15.4631 13.7988 15.5441 13.7464C15.6252 13.694 15.7205 13.668 15.8169 13.672H17.7299L18.7149 11.553C18.756 11.4704 18.8194 11.4009 18.8978 11.3524C18.9762 11.3038 19.0667 11.2781 19.1589 11.2781C19.2512 11.2781 19.3416 11.3038 19.42 11.3524C19.4985 11.4009 19.5618 11.4704 19.6029 11.553L20.5869 13.672H22.4989C22.5953 13.6682 22.6905 13.6942 22.7715 13.7465C22.8525 13.7988 22.9154 13.8749 22.9515 13.9643C22.9876 14.0538 22.9952 14.1522 22.9733 14.2461C22.9513 14.34 22.9009 14.4248 22.8289 14.489L21.1689 16.124L22.0889 18.235C22.1289 18.3318 22.1376 18.4387 22.1138 18.5407C22.09 18.6428 22.0349 18.7348 21.9562 18.8039C21.8775 18.873 21.7791 18.9158 21.6749 18.9262C21.5706 18.9366 21.4658 18.9142 21.3749 18.862L19.1589 17.618Z" fill="#FFEF5E"/>
<path d="M12.5631 5.40918L13.7891 7.93518H16.1751C16.2959 7.92964 16.4155 7.9617 16.5174 8.02694C16.6192 8.09218 16.6984 8.1874 16.7439 8.29947C16.7894 8.41155 16.799 8.53498 16.7715 8.65276C16.7439 8.77055 16.6806 8.8769 16.5901 8.95718L14.5191 11.1212L15.6661 13.7612C15.7173 13.882 15.7292 14.0159 15.7 14.1439C15.6709 14.2718 15.6022 14.3874 15.5038 14.4741C15.4053 14.5608 15.282 14.6144 15.1514 14.6272C15.0208 14.6399 14.8895 14.6112 14.7761 14.5452L12.0001 12.9822L9.22607 14.5452C9.11276 14.611 8.98161 14.6396 8.85118 14.6268C8.72075 14.614 8.59763 14.5606 8.49923 14.474C8.40083 14.3875 8.33214 14.2722 8.30286 14.1444C8.27358 14.0167 8.2852 13.883 8.33607 13.7622L9.48407 11.1222L7.40907 8.95718C7.31875 8.87701 7.25545 8.77085 7.22786 8.65327C7.20028 8.53569 7.20977 8.41245 7.25502 8.30048C7.30027 8.1885 7.37906 8.09328 7.48059 8.02787C7.58212 7.96247 7.70141 7.93009 7.82207 7.93518H10.2131L11.4431 5.40918C11.4968 5.30721 11.5774 5.22185 11.6761 5.16231C11.7747 5.10276 11.8878 5.07129 12.0031 5.07129C12.1183 5.07129 12.2314 5.10276 12.3301 5.16231C12.4288 5.22185 12.5093 5.30721 12.5631 5.40918Z" fill="#FFEF5E"/>
<path d="M8.75983 12.7901L13.7318 7.81709L12.5628 5.40909C12.5095 5.30585 12.4289 5.21927 12.3297 5.15882C12.2304 5.09838 12.1165 5.06641 12.0003 5.06641C11.8841 5.06641 11.7702 5.09838 11.671 5.15882C11.5718 5.21927 11.4911 5.30585 11.4378 5.40909L10.2078 7.93509H7.81783C7.69759 7.93109 7.57905 7.96426 7.47834 8.03007C7.37764 8.09589 7.29968 8.19114 7.25507 8.30287C7.21047 8.4146 7.2014 8.53736 7.22909 8.65443C7.25678 8.7715 7.31989 8.87719 7.40983 8.95709L9.47983 11.1201L8.75983 12.7901Z" fill="#FFF9BF"/>
<path d="M17.7299 13.6752L18.7149 11.5562C18.7575 11.4733 18.8221 11.4037 18.9017 11.3551C18.9813 11.3065 19.0727 11.2808 19.1659 11.2808C19.2591 11.2808 19.3506 11.3065 19.4301 11.3551C19.5097 11.4037 19.5743 11.4733 19.6169 11.5562L20.5989 13.6752H22.5119C22.6083 13.6713 22.7035 13.6974 22.7845 13.7497C22.8655 13.802 22.9284 13.8781 22.9645 13.9675C23.0006 14.057 23.0082 14.1554 22.9863 14.2493C22.9643 14.3432 22.9139 14.428 22.8419 14.4922L21.1809 16.1272L22.1009 18.2392C22.142 18.336 22.1514 18.4433 22.128 18.5459C22.1045 18.6484 22.0493 18.7409 21.9702 18.8103C21.8911 18.8796 21.7922 18.9222 21.6874 18.9321C21.5827 18.9419 21.4776 18.9185 21.3869 18.8652L19.1639 17.6152L16.9409 18.8652C16.8503 18.9182 16.7453 18.9413 16.6408 18.9312C16.5363 18.9212 16.4376 18.8785 16.3587 18.8092C16.2798 18.74 16.2248 18.6476 16.2013 18.5453C16.1778 18.443 16.1871 18.3359 16.2279 18.2392L16.7549 17.0292M7.24892 17.0402L7.77092 18.2402C7.81138 18.3369 7.82043 18.4438 7.7968 18.5459C7.77318 18.648 7.71807 18.7401 7.63926 18.8092C7.56046 18.8783 7.46193 18.9208 7.35762 18.9309C7.2533 18.9409 7.14847 18.9179 7.05792 18.8652L4.83392 17.6152L2.61192 18.8652C2.52128 18.9185 2.41612 18.9419 2.3114 18.9321C2.20669 18.9222 2.10775 18.8796 2.02866 18.8103C1.94957 18.7409 1.89436 18.6484 1.87089 18.5459C1.84742 18.4433 1.85688 18.336 1.89792 18.2392L2.81892 16.1272L1.15892 14.4922C1.08716 14.4282 1.03686 14.3436 1.01486 14.25C0.992855 14.1564 1.00022 14.0583 1.03595 13.969C1.07168 13.8798 1.13404 13.8037 1.21455 13.7511C1.29507 13.6985 1.38982 13.672 1.48592 13.6752H3.39992L4.38492 11.5562C4.42751 11.4733 4.49214 11.4037 4.57171 11.3551C4.65128 11.3065 4.7427 11.2808 4.83592 11.2808C4.92915 11.2808 5.02057 11.3065 5.10014 11.3551C5.1797 11.4037 5.24433 11.4733 5.28692 11.5562L6.26892 13.6752M12.5629 5.40918L13.7889 7.93518H16.1749C16.2958 7.92964 16.4153 7.9617 16.5172 8.02694C16.6191 8.09218 16.6982 8.1874 16.7437 8.29947C16.7892 8.41155 16.7989 8.53498 16.7713 8.65276C16.7438 8.77055 16.6804 8.8769 16.5899 8.95718L14.5189 11.1212L15.6659 13.7612C15.7171 13.882 15.729 14.0159 15.6999 14.1439C15.6708 14.2718 15.6021 14.3874 15.5036 14.4741C15.4051 14.5608 15.2819 14.6144 15.1512 14.6272C15.0206 14.6399 14.8893 14.6112 14.7759 14.5452L11.9999 12.9822L9.22592 14.5452C9.11261 14.611 8.98146 14.6396 8.85103 14.6268C8.7206 14.614 8.59748 14.5606 8.49908 14.474C8.40068 14.3875 8.33199 14.2722 8.30271 14.1444C8.27343 14.0167 8.28505 13.883 8.33592 13.7622L9.48392 11.1222L7.40892 8.95718C7.3186 8.87701 7.2553 8.77085 7.22772 8.65327C7.20013 8.53569 7.20962 8.41245 7.25487 8.30048C7.30012 8.1885 7.37891 8.09328 7.48044 8.02787C7.58197 7.96247 7.70126 7.93009 7.82192 7.93518H10.2129L11.4429 5.40918C11.4967 5.30721 11.5772 5.22185 11.6759 5.16231C11.7746 5.10276 11.8877 5.07129 12.0029 5.07129C12.1182 5.07129 12.2313 5.10276 12.3299 5.16231C12.4286 5.22185 12.5092 5.30721 12.5629 5.40918Z" stroke="#191919" stroke-linecap="round" stroke-linejoin="round"/>
</svg>
