<svg width="24" height="24" viewBox="0 0 24 24" fill="none" xmlns="http://www.w3.org/2000/svg">
<path d="M11.9999 6.74C12.3768 6.74 12.75 6.66577 13.0982 6.52153C13.4464 6.3773 13.7628 6.1659 14.0293 5.8994C14.2958 5.63289 14.5072 5.31651 14.6514 4.9683C14.7956 4.6201 14.8699 4.24689 14.8699 3.87C14.8699 3.49311 14.7956 3.1199 14.6514 2.7717C14.5072 2.42349 14.2958 2.10711 14.0293 1.8406C13.7628 1.5741 13.4464 1.3627 13.0982 1.21847C12.75 1.07423 12.3768 1 11.9999 1C11.2387 1 10.5087 1.30237 9.97049 1.8406C9.43226 2.37883 9.12988 3.10883 9.12988 3.87C9.12988 4.63117 9.43226 5.36117 9.97049 5.8994C10.5087 6.43763 11.2387 6.74 11.9999 6.74Z" fill="#FFEF5E"/>
<path d="M9.12988 3.86989C9.13088 4.13989 9.16988 4.40989 9.24588 4.66989C9.7215 5.05193 10.3065 5.27248 10.9159 5.29953C11.5254 5.32658 12.1276 5.15873 12.6352 4.82034C13.1428 4.48194 13.5293 3.99061 13.7388 3.41764C13.9482 2.84466 13.9696 2.21986 13.7999 1.63389C13.3782 1.29431 12.869 1.08095 12.3312 1.01845C11.7933 0.955954 11.2488 1.04687 10.7605 1.28069C10.2721 1.51451 9.85987 1.88171 9.57134 2.33986C9.28281 2.79802 9.12976 3.32845 9.12988 3.86989Z" fill="#FFF9BF"/>
<path d="M9.01992 11.285L6.58891 12.425C6.36877 12.519 6.17257 12.6613 6.0148 12.8414C5.85703 13.0214 5.74173 13.2346 5.67741 13.4652C5.61309 13.6958 5.6014 13.9379 5.6432 14.1736C5.685 14.4093 5.77923 14.6326 5.91891 14.827L10.0879 21.067H13.9139L18.0819 14.827C18.2212 14.6325 18.3151 14.4092 18.3567 14.1736C18.3983 13.9379 18.3866 13.696 18.3223 13.4655C18.258 13.235 18.1428 13.0219 17.9853 12.8419C17.8277 12.6618 17.6318 12.5193 17.4119 12.425L14.7979 11.198L9.01992 11.285Z" fill="#FFBC44"/>
<path d="M15.6099 9.56878C15.6301 9.48385 15.6267 9.39499 15.5999 9.31189C15.5731 9.22878 15.5241 9.15461 15.4581 9.09747C15.3921 9.04033 15.3116 9.0024 15.2255 8.98782C15.1395 8.97324 15.051 8.98256 14.9699 9.01478C13.0625 9.78155 10.9321 9.77868 9.02687 9.00678C8.94582 8.97544 8.85777 8.96679 8.77217 8.98175C8.68657 8.99671 8.60667 9.03472 8.54106 9.09169C8.47545 9.14866 8.42661 9.22244 8.3998 9.30509C8.37298 9.38774 8.3692 9.47614 8.38887 9.56078L11.0439 21.0658H12.9569L15.6099 9.56878Z" fill="#FFEF5E"/>
<path d="M11.9999 9.58778C10.9816 9.57813 9.97384 9.38118 9.02687 9.00678C8.94582 8.97544 8.85777 8.96679 8.77217 8.98175C8.68657 8.99671 8.60667 9.03472 8.54106 9.09169C8.47545 9.14866 8.42661 9.22244 8.3998 9.30509C8.37298 9.38774 8.3692 9.47614 8.38887 9.56078L11.0439 21.0658H11.9999V9.58778Z" fill="#FFF9BF"/>
<path d="M16.528 12.01L17.412 12.425C17.6323 12.519 17.8286 12.6613 17.9865 12.8415C18.1444 13.0216 18.2597 13.2349 18.3241 13.4656C18.3884 13.6963 18.4 13.9385 18.3581 14.1744C18.3162 14.4102 18.2219 14.6336 18.082 14.828L13.913 21.068M7.47298 12.01L6.58898 12.425C6.36868 12.519 6.17233 12.6613 6.01445 12.8415C5.85657 13.0216 5.7412 13.2349 5.67688 13.4656C5.61255 13.6963 5.60091 13.9385 5.64281 14.1744C5.68472 14.4102 5.7791 14.6336 5.91898 14.828L10.088 21.068M17.467 22.629C17.0932 22.1759 16.6297 21.8051 16.1057 21.5397C15.5816 21.2743 15.0084 21.1202 14.422 21.087H9.63898C9.05066 21.1213 8.47523 21.2734 7.94684 21.5344C7.41844 21.7953 6.94784 22.1597 6.56298 22.606L6.26198 23H17.74L17.467 22.629ZM15.61 9.569C15.6302 9.48407 15.6268 9.39521 15.6 9.3121C15.5733 9.229 15.5242 9.15483 15.4582 9.09769C15.3922 9.04054 15.3117 9.00262 15.2256 8.98804C15.1396 8.97345 15.0511 8.98278 14.97 9.015C13.0626 9.78177 10.9322 9.7789 9.02698 9.007C8.94593 8.97566 8.85788 8.967 8.77228 8.98197C8.68668 8.99693 8.60678 9.03493 8.54117 9.09191C8.47556 9.14888 8.42673 9.22266 8.39991 9.30531C8.37309 9.38796 8.36931 9.47636 8.38898 9.561L11.044 21.066H12.957L15.61 9.569ZM12 6.74C12.3769 6.74 12.7501 6.66577 13.0983 6.52153C13.4465 6.3773 13.7629 6.1659 14.0294 5.8994C14.2959 5.63289 14.5073 5.31651 14.6515 4.9683C14.7957 4.6201 14.87 4.24689 14.87 3.87C14.87 3.49311 14.7957 3.1199 14.6515 2.7717C14.5073 2.42349 14.2959 2.10711 14.0294 1.8406C13.7629 1.5741 13.4465 1.3627 13.0983 1.21847C12.7501 1.07423 12.3769 1 12 1C11.2388 1 10.5088 1.30237 9.97058 1.8406C9.43235 2.37883 9.12998 3.10883 9.12998 3.87C9.12998 4.63117 9.43235 5.36117 9.97058 5.8994C10.5088 6.43763 11.2388 6.74 12 6.74Z" stroke="#191919" stroke-linecap="round" stroke-linejoin="round"/>
</svg>
