<svg width="24" height="24" viewBox="0 0 24 24" fill="none" xmlns="http://www.w3.org/2000/svg">
<path d="M15.1299 1.09961V1.1416C16.1724 1.1967 17.1648 1.46744 18.1025 1.95508C19.1592 2.50457 20.0351 3.26962 20.7266 4.24609C21.4183 5.22299 21.8478 6.30354 22.0117 7.48242C22.1754 8.65962 22.0638 9.81543 21.6787 10.9443C21.2934 12.0737 20.6722 13.0578 19.8174 13.8916C18.9621 14.7258 17.966 15.3163 16.834 15.6602L16.832 15.6611C15.6964 15.9992 14.5444 16.0594 13.3818 15.8428H13.3809C12.7111 15.7155 12.0797 15.4984 11.4844 15.1992L4.83008 22.7646L4.56641 23.0645L4.2666 22.8008L3.76953 22.3643L3.72363 22.417L3.42188 22.1445L2.48438 21.2969L2.19336 21.0332L2.21973 21.0029L2.06152 20.8652L1.75977 20.6016L2.02539 20.3008L8.69043 12.7383C8.05716 11.8166 7.6565 10.7891 7.49414 9.6582L7.45996 9.38867C7.30875 8.046 7.50517 6.74853 8.04883 5.50293V5.50195C8.59401 4.25796 9.42487 3.24193 10.5352 2.45898L10.7607 2.30566C11.9744 1.50385 13.3007 1.09961 14.7305 1.09961H15.1299ZM3.34473 20.9277L3.69336 21.2344L5.10254 19.6172L4.75488 19.3105L3.34473 20.9277ZM10.9971 13.9775C11.1001 14.0507 11.2047 14.12 11.3105 14.1865L11.5771 13.8838C11.4693 13.8189 11.3627 13.7507 11.2578 13.6787L10.9971 13.9775ZM16.4248 4.54492C15.6241 4.20186 14.8012 4.11581 13.9453 4.28516L13.9443 4.28418C13.0892 4.4585 12.3562 4.85726 11.7373 5.48535C11.1162 6.12064 10.7213 6.86373 10.5469 7.72168C10.373 8.57754 10.4548 9.40643 10.7939 10.2178L10.7959 10.2217C11.126 11.0332 11.6496 11.6777 12.373 12.1631C13.0965 12.6484 13.894 12.8896 14.7754 12.8896C15.3422 12.8896 15.8929 12.7802 16.4307 12.5596C16.963 12.3391 17.4287 12.0305 17.8311 11.6328C18.5553 10.8832 18.9667 10.0015 19.0723 8.97461C19.1777 7.94294 18.9464 7.00667 18.375 6.15039L18.1816 5.88672C17.7135 5.29256 17.1289 4.84669 16.4248 4.54492Z" fill="#FFEF5E" stroke="#212121" stroke-width="0.8"/>
</svg>
